<svg width="24" height="24" viewBox="0 0 24 24" fill="none" xmlns="http://www.w3.org/2000/svg">
<rect y="3.42999" width="24" height="17.1429" rx="2" fill="white"/>
<mask id="mask0_2258_438" style="mask-type:luminance" maskUnits="userSpaceOnUse" x="0" y="3" width="24" height="18">
<rect y="3.42999" width="24" height="17.1429" rx="2" fill="white"/>
</mask>
<g mask="url(#mask0_2258_438)">
<path d="M24 20.5726H0V19.43H24V20.5726ZM24 18.2874H0V17.1439H24V18.2874ZM24 16.0013H0V14.8587H24V16.0013ZM24 13.7161H0V12.5726H24V13.7161ZM24 11.43H0V10.2874H24V11.43ZM24 9.14386H0V8.00128H24V9.14386ZM24 6.8587H0V5.71613H24V6.8587ZM24 4.57257H0V3.42999H24V4.57257Z" fill="#D02F44"/>
<rect y="3.42999" width="10.2857" height="8" fill="#46467F"/>
<g filter="url(#filter0_d_2258_438)">
<path d="M1.71411 9.14417C2.02961 9.14417 2.28525 9.39999 2.2854 9.71545C2.2854 10.031 2.0297 10.2867 1.71411 10.2867C1.39858 10.2867 1.14282 10.031 1.14282 9.71545C1.14297 9.40004 1.39868 9.14424 1.71411 9.14417ZM4.00024 9.14417C4.31561 9.14432 4.57138 9.40008 4.57153 9.71545C4.57153 10.031 4.31571 10.2866 4.00024 10.2867C3.68465 10.2867 3.42896 10.031 3.42896 9.71545C3.42911 9.39999 3.68475 9.14417 4.00024 9.14417ZM6.2854 9.14417C6.6009 9.14417 6.85654 9.39999 6.85669 9.71545C6.85669 10.031 6.60099 10.2867 6.2854 10.2867C5.96994 10.2866 5.71411 10.031 5.71411 9.71545C5.71426 9.40008 5.97003 9.14432 6.2854 9.14417ZM8.57153 9.14417C8.88697 9.14424 9.14267 9.40004 9.14282 9.71545C9.14282 10.031 8.88706 10.2867 8.57153 10.2867C8.25594 10.2867 8.00024 10.031 8.00024 9.71545C8.0004 9.39999 8.25603 9.14417 8.57153 9.14417ZM2.85669 8.00159C3.17228 8.00159 3.42895 8.25728 3.42896 8.57288C3.42896 8.88847 3.17228 9.14417 2.85669 9.14417C2.54129 9.14394 2.2854 8.88833 2.2854 8.57288C2.2854 8.25742 2.54129 8.00181 2.85669 8.00159ZM5.14282 8.00159C5.45841 8.00159 5.71411 8.25728 5.71411 8.57288C5.71411 8.88847 5.45841 9.14417 5.14282 9.14417C4.82723 9.14417 4.57153 8.88847 4.57153 8.57288C4.57153 8.25728 4.82723 8.00159 5.14282 8.00159ZM7.42896 8.00159C7.74435 8.00181 8.00024 8.25742 8.00024 8.57288C8.00024 8.88833 7.74435 9.14394 7.42896 9.14417C7.11336 9.14417 6.85669 8.88847 6.85669 8.57288C6.85669 8.25728 7.11336 8.00159 7.42896 8.00159ZM1.71411 6.85901C2.0297 6.85901 2.2854 7.11471 2.2854 7.4303C2.28525 7.74576 2.02961 8.00159 1.71411 8.00159C1.39868 8.00151 1.14297 7.74571 1.14282 7.4303C1.14282 7.11475 1.39858 6.85908 1.71411 6.85901ZM4.00024 6.85901C4.31571 6.85916 4.57153 7.1148 4.57153 7.4303C4.57138 7.74567 4.31561 8.00144 4.00024 8.00159C3.68475 8.00159 3.42911 7.74576 3.42896 7.4303C3.42896 7.11471 3.68465 6.85901 4.00024 6.85901ZM6.2854 6.85901C6.60099 6.85901 6.85669 7.11471 6.85669 7.4303C6.85654 7.74576 6.6009 8.00159 6.2854 8.00159C5.97003 8.00144 5.71426 7.74567 5.71411 7.4303C5.71411 7.1148 5.96994 6.85916 6.2854 6.85901ZM8.57153 6.85901C8.88706 6.85908 9.14282 7.11475 9.14282 7.4303C9.14267 7.74571 8.88697 8.00151 8.57153 8.00159C8.25603 8.00159 8.00039 7.74576 8.00024 7.4303C8.00024 7.11471 8.25594 6.85901 8.57153 6.85901ZM2.85669 5.71545C3.17214 5.71545 3.42873 5.97134 3.42896 6.28674C3.42896 6.60233 3.17228 6.85901 2.85669 6.85901C2.54129 6.85878 2.2854 6.6022 2.2854 6.28674C2.28563 5.97148 2.54143 5.71568 2.85669 5.71545ZM5.14282 5.71545C5.45827 5.71545 5.71389 5.97134 5.71411 6.28674C5.71411 6.60233 5.45841 6.85901 5.14282 6.85901C4.82723 6.85901 4.57153 6.60233 4.57153 6.28674C4.57176 5.97134 4.82737 5.71545 5.14282 5.71545ZM7.42896 5.71545C7.74421 5.71568 8.00002 5.97148 8.00024 6.28674C8.00024 6.6022 7.74435 6.85878 7.42896 6.85901C7.11336 6.85901 6.85669 6.60233 6.85669 6.28674C6.85692 5.97134 7.1135 5.71545 7.42896 5.71545ZM1.71411 4.57288C2.02966 4.57288 2.28532 4.82864 2.2854 5.14417C2.2854 5.45976 2.0297 5.71545 1.71411 5.71545C1.39858 5.71538 1.14282 5.45971 1.14282 5.14417C1.1429 4.82868 1.39863 4.57295 1.71411 4.57288ZM4.00024 4.57288C4.31566 4.57303 4.57146 4.82873 4.57153 5.14417C4.57153 5.45966 4.31571 5.7153 4.00024 5.71545C3.68465 5.71545 3.42896 5.45976 3.42896 5.14417C3.42903 4.82864 3.6847 4.57288 4.00024 4.57288ZM6.2854 4.57288C6.60095 4.57288 6.85661 4.82864 6.85669 5.14417C6.85669 5.45976 6.60099 5.71545 6.2854 5.71545C5.96994 5.7153 5.71411 5.45966 5.71411 5.14417C5.71419 4.82873 5.96998 4.57303 6.2854 4.57288ZM8.57153 4.57288C8.88701 4.57295 9.14275 4.82868 9.14282 5.14417C9.14282 5.45971 8.88706 5.71538 8.57153 5.71545C8.25594 5.71545 8.00024 5.45976 8.00024 5.14417C8.00032 4.82864 8.25599 4.57288 8.57153 4.57288Z" fill="url(#paint0_linear_2258_438)"/>
</g>
</g>
<defs>
<filter id="filter0_d_2258_438" x="1.14282" y="4.57288" width="8" height="6.71387" filterUnits="userSpaceOnUse" color-interpolation-filters="sRGB">
<feFlood flood-opacity="0" result="BackgroundImageFix"/>
<feColorMatrix in="SourceAlpha" type="matrix" values="0 0 0 0 0 0 0 0 0 0 0 0 0 0 0 0 0 0 127 0" result="hardAlpha"/>
<feOffset dy="1"/>
<feColorMatrix type="matrix" values="0 0 0 0 0 0 0 0 0 0 0 0 0 0 0 0 0 0 0.06 0"/>
<feBlend mode="normal" in2="BackgroundImageFix" result="effect1_dropShadow_2258_438"/>
<feBlend mode="normal" in="SourceGraphic" in2="effect1_dropShadow_2258_438" result="shape"/>
</filter>
<linearGradient id="paint0_linear_2258_438" x1="1.14282" y1="4.57288" x2="1.14282" y2="10.2867" gradientUnits="userSpaceOnUse">
<stop stop-color="white"/>
<stop offset="1" stop-color="#F0F0F0"/>
</linearGradient>
</defs>
</svg>
